# Blender v2.78 (sub 0) OBJ File: 'Boat.blend'
# www.blender.org
o Boat.002_Cube.003
v 0.000000 0.000000 -0.401730
v 0.000000 17.089176 -0.401730
v 0.236131 0.000000 -0.325007
v 0.236131 17.089176 -0.325007
v 0.382068 0.000000 -0.124142
v 0.382068 17.089176 -0.124142
v 0.382068 0.000000 0.124142
v 0.382068 17.089176 0.124142
v 0.236131 0.000000 0.325007
v 0.236131 17.089176 0.325007
v -0.000000 0.000000 0.401730
v -0.000000 17.089176 0.401730
v -0.236131 0.000000 0.325007
v -0.236131 17.089176 0.325007
v -0.382068 0.000000 0.124142
v -0.382068 17.089176 0.124142
v -0.382068 0.000000 -0.124142
v -0.382068 17.089176 -0.124142
v -0.236131 0.000000 -0.325007
v -0.236131 17.089176 -0.325007
vt 0.9165 0.3824
vt 0.9167 0.0091
vt 0.9233 0.0091
vt 0.9230 0.3824
vt 0.9298 0.0091
vt 0.9295 0.3823
vt 0.9363 0.0091
vt 0.9360 0.3823
vt 0.9428 0.0091
vt 0.9425 0.3823
vt 0.9493 0.0090
vt 0.9490 0.3823
vt 0.9558 0.0090
vt 0.9556 0.3823
vt 0.9623 0.0090
vt 0.9621 0.3823
vt 0.9689 0.0090
vt 0.9686 0.3823
vt 0.8857 0.3621
vt 0.8797 0.3804
vt 0.8749 0.3769
vt 0.9034 0.3824
vt 0.9037 0.0091
vt 0.9102 0.0091
vt 0.9100 0.3824
vt 0.8731 0.3712
vt 0.8749 0.3656
vt 0.8797 0.3621
vt 0.8905 0.3656
vt 0.8923 0.3712
vt 0.8905 0.3769
vt 0.8856 0.3804
vn 0.0000 0.0000 -1.0000
vn 0.5878 0.0000 -0.8090
vn 0.9511 0.0000 -0.3090
vn 0.9511 0.0000 0.3090
vn 0.5878 0.0000 0.8090
vn -0.0000 0.0000 1.0000
vn -0.5878 0.0000 0.8090
vn -0.9511 0.0000 0.3090
vn -0.9511 0.0000 -0.3090
vn 0.0000 1.0000 0.0000
vn -0.5878 0.0000 -0.8090
s 1
f 1/1/1 2/2/1 4/3/2 3/4/2
f 3/4/2 4/3/2 6/5/3 5/6/3
f 5/6/3 6/5/3 8/7/4 7/8/4
f 7/8/4 8/7/4 10/9/5 9/10/5
f 9/10/5 10/9/5 12/11/6 11/12/6
f 11/12/6 12/11/6 14/13/7 13/14/7
f 13/14/7 14/13/7 16/15/8 15/16/8
f 15/16/8 16/15/8 18/17/9 17/18/9
f 18/19/10 8/20/10 6/21/10
f 17/22/9 18/23/9 20/24/11 19/25/11
f 19/25/11 20/24/11 2/2/1 1/1/1
f 6/21/10 4/26/10 18/19/10
f 2/27/10 20/28/10 18/19/10
f 18/19/10 16/29/10 14/30/10
f 14/30/10 12/31/10 18/19/10
f 10/32/10 8/20/10 18/19/10
f 4/26/10 2/27/10 18/19/10
f 18/19/10 12/31/10 10/32/10
