# Blender v2.78 (sub 0) OBJ File: ''
# www.blender.org
o Mastil_Cylinder
v -0.000000 0.000000 -0.401730
v -0.000000 13.757504 -0.401730
v 0.236131 0.000000 -0.325007
v 0.236131 13.757504 -0.325007
v 0.382068 0.000000 -0.124142
v 0.382068 13.757504 -0.124142
v 0.382068 0.000000 0.124142
v 0.382068 13.757504 0.124142
v 0.236131 0.000000 0.325007
v 0.236131 13.757504 0.325007
v -0.000000 0.000000 0.401730
v -0.000000 13.757504 0.401730
v -0.236131 0.000000 0.325007
v -0.236131 13.757504 0.325007
v -0.382068 0.000000 0.124142
v -0.382068 13.757504 0.124142
v -0.382068 0.000000 -0.124142
v -0.382068 13.757504 -0.124142
v -0.236131 0.000000 -0.325007
v -0.236131 13.757504 -0.325007
vn 0.0000 0.0000 -1.0000
vn 0.5878 0.0000 -0.8090
vn 0.9511 0.0000 -0.3090
vn 0.9511 0.0000 0.3090
vn 0.5878 0.0000 0.8090
vn -0.0000 0.0000 1.0000
vn -0.5878 0.0000 0.8090
vn -0.9511 0.0000 0.3090
vn -0.9511 0.0000 -0.3090
vn 0.0000 1.0000 0.0000
vn -0.5878 0.0000 -0.8090
s 1
f 1//1 2//1 4//2 3//2
f 3//2 4//2 6//3 5//3
f 5//3 6//3 8//4 7//4
f 7//4 8//4 10//5 9//5
f 9//5 10//5 12//6 11//6
f 11//6 12//6 14//7 13//7
f 13//7 14//7 16//8 15//8
f 15//8 16//8 18//9 17//9
f 18//10 8//10 6//10
f 17//9 18//9 20//11 19//11
f 19//11 20//11 2//1 1//1
f 6//10 4//10 18//10
f 2//10 20//10 18//10
f 18//10 16//10 14//10
f 14//10 12//10 18//10
f 10//10 8//10 18//10
f 4//10 2//10 18//10
f 18//10 12//10 10//10
